<svg xmlns="http://www.w3.org/2000/svg" viewBox="0 0 38.51 38.51" id="linkedin">
  <defs>
    <linearGradient id="a" x1="2.05" x2="36.46" y1="2.05" y2="36.46" gradientUnits="userSpaceOnUse">
      <stop offset="0" stop-color="#007bb8"></stop>
      <stop offset="1" stop-color="#0044e9"></stop>
    </linearGradient>
  </defs>
  <g style="isolation:isolate">
    <g>
      <g>
        <g>
          <rect width="38.51" height="38.51" fill="url(#a)" rx="6.97" ry="6.97"></rect>
          <path fill="#126bc4" d="M38.48,32.24v-7.88s-.03-.03-.04-.04c-.05-.04-.09-.09-.13-.13-.05-.04-.09-.09-.13-.13-1.7-1.71-5.71-5.71-7.41-7.41-.88-.86-2.18-1.36-4.1-1.36-1.62,0-2.87.62-3.7,1.4v-.07h-.13v-.13h-.13v-.13h-.13v-.13h-.13v-.13h-.13v-.13h-.13v-.13h-.13v-.13h-1.21s-.07-.07-.11-.11c-.04-.05-.09-.09-.13-.13-2.2-2.2-4.4-4.4-6.6-6.6-.51-.55-1.24-.9-2.04-.9-1.55,0-2.81,1.26-2.81,2.8,0,.81.35,1.53.9,2.05.85.85,1.7,1.71,2.56,2.56.04.05.09.09.13.13.04.05.09.09.13.13.02.02.03.04.05.06h-3.39v15.56c1.76,1.52,5.54,5.75,7.28,7.28h15.37c3.6-.39,6.1-3.31,6.34-6.26Z" style="mix-blend-mode:multiply"></path>
          <g>
            <path fill="#fff" d="M9.48 15.74h4.85v15.56h-4.85v-15.56zM11.91 8.01c1.55 0 2.8 1.26 2.8 2.8s-1.26 2.81-2.8 2.81-2.81-1.26-2.81-2.81 1.26-2.8 2.81-2.8M17.36 15.74h4.64v2.13h.06c.65-1.22 2.23-2.51 4.58-2.51 4.9 0 5.8 3.22 5.8 7.41v8.54h-4.83v-7.57c0-1.81-.04-4.13-2.51-4.13s-2.9 1.97-2.9 4v7.7h-4.84v-15.56z"></path>
          </g>
        </g>
      </g>
    </g>
  </g>
</svg>
